<svg viewBox="0 0 200 200" xmlns="http://www.w3.org/2000/svg">
  <!-- Background circle -->
  <circle cx="100" cy="100" r="95" fill="#10b981" opacity="0.1"/>
  
  <!-- Iguana head -->
  <ellipse cx="100" cy="85" rx="35" ry="40" fill="#059669"/>
  
  <!-- Iguana eyes -->
  <circle cx="85" cy="75" r="6" fill="#ffffff"/>
  <circle cx="115" cy="75" r="6" fill="#ffffff"/>
  <circle cx="86" cy="75" r="3" fill="#000000"/>
  <circle cx="116" cy="75" r="3" fill="#000000"/>
  
  <!-- Iguana mouth -->
  <path d="M 100 95 Q 95 100 100 102 Q 105 100 100 95" fill="#047857"/>
  
  <!-- Iguana spikes/crest -->
  <circle cx="80" cy="50" r="4" fill="#059669"/>
  <circle cx="100" cy="45" r="5" fill="#059669"/>
  <circle cx="120" cy="50" r="4" fill="#059669"/>
  
  <!-- Iguana body -->
  <ellipse cx="100" cy="140" rx="28" ry="35" fill="#10b981"/>
  
  <!-- Iguana legs -->
  <rect x="75" y="155" width="8" height="30" rx="4" fill="#059669"/>
  <rect x="117" y="155" width="8" height="30" rx="4" fill="#059669"/>
  
  <!-- Iguana tail (curved) -->
  <path d="M 128 140 Q 150 135 160 110 Q 165 90 155 75" stroke="#059669" stroke-width="12" fill="none" stroke-linecap="round"/>
</svg>
